<svg width="20" height="20" viewBox="0 0 24 24" fill="none" xmlns="http://www.w3.org/2000/svg">
<path d="M22.2465 9.17772C22.1691 8.93183 22.0199 8.71473 21.8181 8.55434C21.6162 8.39396 21.3711 8.29762 21.114 8.27772L15.5397 7.79584C15.506 7.79253 15.4738 7.78014 15.4465 7.76C15.4193 7.73987 15.398 7.71273 15.385 7.68147L13.2072 2.49147C13.1063 2.25471 12.9381 2.05282 12.7234 1.91092C12.5087 1.76902 12.257 1.69336 11.9997 1.69336C11.7423 1.69336 11.4906 1.76902 11.276 1.91092C11.0613 2.05282 10.893 2.25471 10.7922 2.49147L8.61435 7.68147C8.6013 7.71273 8.58003 7.73987 8.55279 7.76C8.52556 7.78014 8.49337 7.79253 8.45966 7.79584L2.88529 8.27772C2.62827 8.29762 2.38308 8.39396 2.18126 8.55434C1.97944 8.71473 1.83022 8.93183 1.75279 9.17772C1.67078 9.42395 1.66362 9.68897 1.7322 9.93927C1.80079 10.1896 1.94204 10.4139 2.1381 10.584L6.36716 14.273C6.39306 14.296 6.41229 14.3256 6.42285 14.3586C6.4334 14.3915 6.43489 14.4268 6.42716 14.4605L5.15591 19.9458C5.09665 20.1984 5.11356 20.4628 5.2045 20.7058C5.29543 20.9487 5.45633 21.1593 5.66685 21.3108C5.87411 21.4638 6.12245 21.551 6.37981 21.5614C6.63717 21.5718 6.89172 21.5047 7.1106 21.369L11.9022 18.4627C11.9303 18.4453 11.9628 18.436 11.9959 18.436C12.029 18.436 12.0615 18.4453 12.0897 18.4627L16.8812 21.369C17.1024 21.5044 17.3587 21.5712 17.6178 21.5611C17.8769 21.551 18.1272 21.4643 18.3371 21.3121C18.547 21.1598 18.7072 20.9488 18.7973 20.7057C18.8874 20.4625 18.9034 20.1981 18.8434 19.9458L17.5759 14.4587C17.5682 14.4249 17.5697 14.3897 17.5802 14.3567C17.5908 14.3237 17.61 14.2942 17.6359 14.2712L21.865 10.5821C22.06 10.4118 22.2003 10.1875 22.2682 9.93763C22.3361 9.68773 22.3286 9.42334 22.2465 9.17772ZM21.1215 9.73272L16.8925 13.4218C16.7123 13.5786 16.5783 13.7816 16.5049 14.0089C16.4316 14.2362 16.4217 14.4792 16.4762 14.7118L17.7437 20.199C17.7531 20.2358 17.751 20.2747 17.7378 20.3103C17.7246 20.346 17.7008 20.3768 17.6697 20.3987C17.6415 20.4212 17.6068 20.4342 17.5707 20.4357C17.5346 20.4373 17.499 20.4272 17.469 20.4071L12.6775 17.5008C12.4732 17.3767 12.2387 17.311 11.9997 17.311C11.7606 17.311 11.5261 17.3767 11.3218 17.5008L6.53029 20.4071C6.5003 20.4272 6.46467 20.4373 6.42859 20.4357C6.39251 20.4342 6.35785 20.4212 6.32966 20.3987C6.29852 20.3768 6.27476 20.346 6.26153 20.3103C6.2483 20.2747 6.24623 20.2358 6.2556 20.199L7.5231 14.7118C7.57767 14.4792 7.56774 14.2362 7.49439 14.0089C7.42104 13.7816 7.28705 13.5786 7.10685 13.4218L2.87779 9.73272C2.84886 9.70812 2.82809 9.67532 2.81821 9.63866C2.80834 9.602 2.80982 9.5632 2.82248 9.5274C2.83194 9.49176 2.85247 9.46003 2.88111 9.43678C2.90975 9.41353 2.94502 9.39997 2.98185 9.39803L8.55716 8.91615C8.79585 8.89582 9.02441 8.81055 9.21809 8.66958C9.41177 8.52862 9.56318 8.33734 9.65591 8.11647L11.8337 2.92647C11.8489 2.89425 11.8729 2.86702 11.9029 2.84794C11.933 2.82886 11.9678 2.81873 12.0034 2.81873C12.039 2.81873 12.0739 2.82886 12.1039 2.84794C12.134 2.86702 12.158 2.89425 12.1731 2.92647L14.3434 8.11647C14.4358 8.33681 14.5867 8.52774 14.7796 8.66866C14.9726 8.80959 15.2004 8.89516 15.4384 8.91615L21.0137 9.39803C21.0506 9.39997 21.0858 9.41353 21.1145 9.43678C21.1431 9.46003 21.1636 9.49176 21.1731 9.5274C21.1862 9.56284 21.1883 9.6014 21.1791 9.63803C21.1699 9.67467 21.1498 9.70767 21.1215 9.73272Z" fill="#343330"/>
</svg>