<svg width="20" height="20" viewBox="0 0 16 16" fill="none" xmlns="http://www.w3.org/2000/svg">
<path d="M14.6565 7.14887L11.8377 9.60887L12.6821 13.2714C12.7268 13.4628 12.714 13.6632 12.6454 13.8475C12.5768 14.0317 12.4555 14.1917 12.2965 14.3073C12.1375 14.423 11.9479 14.4892 11.7515 14.4977C11.555 14.5062 11.3605 14.4566 11.1921 14.3551L7.99771 12.4176L4.81021 14.3551C4.64182 14.4566 4.44724 14.5062 4.25082 14.4977C4.05439 14.4892 3.86483 14.423 3.70583 14.3073C3.54683 14.1917 3.42545 14.0317 3.35686 13.8475C3.28828 13.6632 3.27553 13.4628 3.32021 13.2714L4.16333 9.61262L1.34396 7.14887C1.19484 7.02026 1.08701 6.85048 1.03399 6.66084C0.980978 6.47119 0.985134 6.27011 1.04594 6.08281C1.10675 5.89552 1.2215 5.73034 1.37581 5.608C1.53011 5.48567 1.71711 5.41161 1.91333 5.39512L5.62958 5.07324L7.08021 1.61324C7.15596 1.43169 7.28374 1.27661 7.44745 1.16753C7.61116 1.05845 7.80349 1.00024 8.00021 1.00024C8.19693 1.00024 8.38926 1.05845 8.55297 1.16753C8.71668 1.27661 8.84446 1.43169 8.92021 1.61324L10.3752 5.07324L14.0902 5.39512C14.2864 5.41161 14.4734 5.48567 14.6277 5.608C14.782 5.73034 14.8968 5.89552 14.9576 6.08281C15.0184 6.27011 15.0226 6.47119 14.9695 6.66084C14.9165 6.85048 14.8087 7.02026 14.6596 7.14887H14.6565Z" fill="#FACC15"/>
</svg>
